<svg xmlns="http://www.w3.org/2000/svg" viewBox="0 0 24 24" fill="currentColor"><path d="M12 1L13.447 3.89382C14.4678 4.1481 15.421 4.59372 16.2625 5.19593L19.2375 4L20 6.7625L18.8041 9.73754C19.4063 10.579 19.8519 11.5322 20.1062 12.553L23 11V13L20.1062 11.447C19.8519 12.4678 19.4063 13.421 18.8041 14.2625L20 17.2375L19.2375 20L16.2625 18.8041C15.421 19.4063 14.4678 19.8519 13.447 20.1062L12 23L10.553 20.1062C9.53218 19.8519 8.57898 19.4063 7.73754 18.8041L4.7625 20L4 17.2375L5.19593 14.2625C4.59372 13.421 4.1481 12.4678 3.89382 11.447L1 13V11L3.89382 12.553C4.1481 11.5322 4.59372 10.579 5.19593 9.73754L4 6.7625L4.7625 4L7.73754 5.19593C8.57898 4.59372 9.53218 4.1481 10.553 3.89382L12 1ZM12 15C13.6569 15 15 13.6569 15 12C15 10.3431 13.6569 9 12 9C10.3431 9 9 10.3431 9 12C9 13.6569 10.3431 15 12 15Z"></path></svg>